# Blender v2.77 (sub 0) OBJ File: ''
# www.blender.org
mtllib intersection_4way.mtl
o SketchUp.010_ID76
v -5.000000 0.200000 -5.000000
v -3.500001 0.100000 -5.000000
v -5.000000 0.100000 -5.000000
v -3.500001 0.200000 -5.000000
v -3.500001 0.100000 -5.000000
v -3.500001 0.200000 -4.000000
v -3.500001 0.100000 -4.000000
v -3.500001 0.200000 -5.000000
v -5.000000 0.200000 -5.000000
v -5.000000 0.100000 -3.500001
v -5.000000 0.200000 -3.500001
v -5.000000 0.100000 -5.000000
v -4.000000 0.200000 -3.500001
v -5.000000 0.200000 -5.000000
v -5.000000 0.200000 -3.500001
v -3.500001 0.200000 -5.000000
v -3.934736 0.200000 -3.504278
v -3.870592 0.200000 -3.517036
v -3.808659 0.200000 -3.538060
v -3.750000 0.200000 -3.566988
v -3.695619 0.200000 -3.603323
v -3.646447 0.200000 -3.646447
v -3.603323 0.200000 -3.695619
v -3.566988 0.200000 -3.750000
v -3.538060 0.200000 -3.808659
v -3.517036 0.200000 -3.870592
v -3.504278 0.200000 -3.934736
v -3.500001 0.200000 -4.000000
v -3.500001 0.100000 -4.000000
v -3.504278 0.200000 -3.934736
v -3.504278 0.100000 -3.934736
v -3.500001 0.200000 -4.000000
v -4.000000 0.200000 -3.500001
v -5.000000 0.100000 -3.500001
v -4.000000 0.100000 -3.500001
v -5.000000 0.200000 -3.500001
v -3.934736 0.200000 -3.504278
v -4.000000 0.100000 -3.500001
v -3.934736 0.100000 -3.504278
v -4.000000 0.200000 -3.500001
v -3.870592 0.200000 -3.517036
v -3.870592 0.100000 -3.517036
v -3.808659 0.200000 -3.538060
v -3.808659 0.100000 -3.538060
v -3.750000 0.200000 -3.566988
v -3.750000 0.100000 -3.566988
v -3.695619 0.200000 -3.603323
v -3.695619 0.100000 -3.603323
v -3.646447 0.200000 -3.646447
v -3.646447 0.100000 -3.646447
v -3.603323 0.100000 -3.695619
v -3.603323 0.200000 -3.695619
v -3.566988 0.100000 -3.750000
v -3.566988 0.200000 -3.750000
v -3.538060 0.100000 -3.808659
v -3.538060 0.200000 -3.808659
v -3.517036 0.100000 -3.870592
v -3.517036 0.200000 -3.870592
vn 0.000000 0.000000 -1.000000
vn 1.000000 0.000000 0.000000
vn -1.000000 0.000000 0.000000
vn 0.000000 1.000000 0.000000
vn 0.000000 0.000000 1.000000
vn 0.997800 0.000000 0.065400
vn 0.991400 0.000000 0.130500
vn 0.130500 0.000000 0.991400
vn 0.065400 0.000000 0.997800
vn 0.258800 0.000000 0.965900
vn 0.382700 0.000000 0.923900
vn 0.500000 0.000000 0.866000
vn 0.608800 0.000000 0.793300
vn 0.707100 0.000000 0.707100
vn 0.793300 0.000000 0.608800
vn 0.866000 0.000000 0.500000
vn 0.923900 0.000000 0.382700
vn 0.965900 0.000000 0.258800
usemtl Color_M03
s off
f 1//1 2//1 3//1
f 2//1 1//1 4//1
f 5//2 6//2 7//2
f 6//2 5//2 8//2
f 9//3 10//3 11//3
f 10//3 9//3 12//3
f 13//4 14//4 15//4
f 14//4 13//4 16//4
f 16//4 13//4 17//4
f 16//4 17//4 18//4
f 16//4 18//4 19//4
f 16//4 19//4 20//4
f 16//4 20//4 21//4
f 16//4 21//4 22//4
f 16//4 22//4 23//4
f 16//4 23//4 24//4
f 16//4 24//4 25//4
f 16//4 25//4 26//4
f 16//4 26//4 27//4
f 16//4 27//4 28//4
f 33//5 34//5 35//5
f 34//5 33//5 36//5
s 1
f 29//6 30//7 31//7
f 30//7 29//6 32//6
f 37//8 38//9 39//8
f 38//9 37//8 40//9
f 41//10 39//8 42//10
f 39//8 41//10 37//8
f 43//11 42//10 44//11
f 42//10 43//11 41//10
f 45//12 44//11 46//12
f 44//11 45//12 43//11
f 47//13 46//12 48//13
f 46//12 47//13 45//12
f 49//14 48//13 50//14
f 48//13 49//14 47//13
f 51//15 49//14 50//14
f 49//14 51//15 52//15
f 53//16 52//15 51//15
f 52//15 53//16 54//16
f 55//17 54//16 53//16
f 54//16 55//17 56//17
f 57//18 56//17 55//17
f 56//17 57//18 58//18
f 31//7 58//18 57//18
f 58//18 31//7 30//7
o SketchUp.009_ID70
v -4.000000 0.100000 -3.500001
v -5.000000 0.100000 -5.000000
v -5.000000 0.100000 -3.500001
v -3.500001 0.100000 -5.000000
v -3.934736 0.100000 -3.504278
v -3.870592 0.100000 -3.517036
v -3.808659 0.100000 -3.538060
v -3.750000 0.100000 -3.566988
v -3.695619 0.100000 -3.603323
v -3.646447 0.100000 -3.646447
v -3.603323 0.100000 -3.695619
v -3.566988 0.100000 -3.750000
v -3.538060 0.100000 -3.808659
v -3.517036 0.100000 -3.870592
v -3.504278 0.100000 -3.934736
v -3.500001 0.100000 -4.000000
vn 0.000000 1.000000 0.000000
usemtl material
s off
f 59//19 60//19 61//19
f 60//19 59//19 62//19
f 62//19 59//19 63//19
f 62//19 63//19 64//19
f 62//19 64//19 65//19
f 62//19 65//19 66//19
f 62//19 66//19 67//19
f 62//19 67//19 68//19
f 62//19 68//19 69//19
f 62//19 69//19 70//19
f 62//19 70//19 71//19
f 62//19 71//19 72//19
f 62//19 72//19 73//19
f 62//19 73//19 74//19
o SketchUp.008_ID62
v 3.504278 0.100000 3.934736
v 3.500001 0.100000 -4.000000
v 3.500001 0.100000 4.000000
v 3.504278 0.100000 -3.934736
v 3.517036 0.100000 3.870592
v 3.517036 0.100000 -3.870592
v 3.538060 0.100000 3.808659
v 3.538060 0.100000 -3.808659
v 3.566988 0.100000 3.750000
v 3.566988 0.100000 -3.750000
v 3.603323 0.100000 3.695619
v 3.603323 0.100000 -3.695619
v 3.646447 0.100000 3.646447
v 3.646447 0.100000 -3.646447
v 3.695619 0.100000 3.603323
v 3.695619 0.100000 -3.603323
v 3.750000 0.100000 3.566988
v 3.750000 0.100000 -3.566988
v 3.808659 0.100000 3.538060
v 3.808659 0.100000 -3.538060
v 3.870592 0.100000 3.517036
v 3.870592 0.100000 -3.517036
v 3.934736 0.100000 3.504278
v 3.934736 0.100000 -3.504278
v 4.000000 0.100000 3.500001
v 4.000000 0.100000 -3.500001
v 5.000000 0.100000 3.500001
v 5.000000 0.100000 -3.500001
v 3.500001 0.100000 5.000000
v -3.500001 0.100000 4.000000
v -3.500001 0.100000 5.000000
v -3.500001 0.100000 -4.000000
v -3.500001 0.100000 -5.000000
v 3.500001 0.100000 -5.000000
v -4.000000 0.100000 3.500001
v -5.000000 0.100000 -3.500001
v -5.000000 0.100000 3.500001
v -4.000000 0.100000 -3.500001
v -3.934736 0.100000 3.504278
v -3.934736 0.100000 -3.504278
v -3.870592 0.100000 3.517036
v -3.870592 0.100000 -3.517036
v -3.808659 0.100000 3.538060
v -3.808659 0.100000 -3.538060
v -3.750000 0.100000 3.566988
v -3.750000 0.100000 -3.566988
v -3.695619 0.100000 3.603323
v -3.695619 0.100000 -3.603323
v -3.646447 0.100000 3.646447
v -3.646447 0.100000 -3.646447
v -3.603323 0.100000 3.695619
v -3.603323 0.100000 -3.695619
v -3.566988 0.100000 3.750000
v -3.566988 0.100000 -3.750000
v -3.538060 0.100000 3.808659
v -3.538060 0.100000 -3.808659
v -3.517036 0.100000 3.870592
v -3.517036 0.100000 -3.870592
v -3.504278 0.100000 3.934736
v -3.504278 0.100000 -3.934736
vn 0.000000 1.000000 0.000000
vn 0.000000 -1.000000 0.000000
usemtl Color_M08
s off
f 75//20 76//20 77//20
f 76//20 75//20 78//20
f 78//20 75//20 79//20
f 78//20 79//20 80//20
f 80//20 79//20 81//20
f 80//20 81//20 82//20
f 82//20 81//20 83//20
f 82//20 83//20 84//20
f 84//20 83//20 85//20
f 84//20 85//20 86//20
f 86//20 85//20 87//20
f 86//20 87//20 88//20
f 88//20 87//20 89//20
f 88//20 89//20 90//20
f 90//20 89//20 91//20
f 90//20 91//20 92//20
f 92//20 91//20 93//20
f 92//20 93//20 94//20
f 94//20 93//20 95//20
f 94//20 95//20 96//20
f 96//20 95//20 97//20
f 96//20 97//20 98//20
f 98//20 97//20 99//20
f 98//20 99//20 100//20
f 100//20 99//20 101//20
f 100//20 101//20 102//20
f 103//20 104//20 105//20
f 104//20 103//20 106//20
f 106//20 103//20 107//20
f 107//20 103//20 108//20
f 108//20 103//20 77//20
f 108//21 77//21 76//21
f 109//20 110//20 111//20
f 110//20 109//20 112//20
f 112//20 109//20 113//20
f 112//20 113//20 114//20
f 114//20 113//20 115//20
f 114//20 115//20 116//20
f 116//20 115//20 117//20
f 116//20 117//20 118//20
f 118//20 117//20 119//20
f 118//20 119//20 120//20
f 120//20 119//20 121//20
f 120//20 121//20 122//20
f 122//20 121//20 123//20
f 122//20 123//20 124//20
f 124//20 123//20 125//20
f 124//20 125//20 126//20
f 126//20 125//20 127//20
f 126//20 127//20 128//20
f 128//20 127//20 129//20
f 128//20 129//20 130//20
f 130//20 129//20 131//20
f 130//20 131//20 132//20
f 132//20 131//20 133//20
f 132//20 133//20 134//20
f 134//20 133//20 104//20
f 134//20 104//20 106//20
o SketchUp.007_ID56
v 5.000000 0.200000 5.000000
v 3.500001 0.200000 4.000000
v 3.500001 0.200000 5.000000
v 3.504278 0.200000 3.934736
v 3.517036 0.200000 3.870592
v 3.538060 0.200000 3.808659
v 3.566988 0.200000 3.750000
v 3.603323 0.200000 3.695619
v 3.646447 0.200000 3.646447
v 3.695619 0.200000 3.603323
v 3.750000 0.200000 3.566988
v 3.808659 0.200000 3.538060
v 3.870592 0.200000 3.517036
v 3.934736 0.200000 3.504278
v 4.000000 0.200000 3.500001
v 5.000000 0.200000 3.500001
v 4.000000 0.200000 3.500001
v 5.000000 0.100000 3.500001
v 4.000000 0.100000 3.500001
v 5.000000 0.200000 3.500001
v 3.934736 0.200000 3.504278
v 4.000000 0.100000 3.500001
v 3.934736 0.100000 3.504278
v 4.000000 0.200000 3.500001
v 3.870592 0.200000 3.517036
v 3.870592 0.100000 3.517036
v 3.808659 0.200000 3.538060
v 3.808659 0.100000 3.538060
v 3.750000 0.200000 3.566988
v 3.750000 0.100000 3.566988
v 3.695619 0.200000 3.603323
v 3.695619 0.100000 3.603323
v 3.646447 0.200000 3.646447
v 3.646447 0.100000 3.646447
v 3.603323 0.100000 3.695619
v 3.603323 0.200000 3.695619
v 3.566988 0.100000 3.750000
v 3.566988 0.200000 3.750000
v 3.538060 0.100000 3.808659
v 3.538060 0.200000 3.808659
v 3.517036 0.100000 3.870592
v 3.517036 0.200000 3.870592
v 3.504278 0.100000 3.934736
v 3.504278 0.200000 3.934736
v 3.500001 0.100000 4.000000
v 3.500001 0.200000 4.000000
v 3.500001 0.200000 4.000000
v 3.500001 0.100000 5.000000
v 3.500001 0.200000 5.000000
v 3.500001 0.100000 4.000000
v 5.000000 0.200000 5.000000
v 3.500001 0.100000 5.000000
v 5.000000 0.100000 5.000000
v 3.500001 0.200000 5.000000
v 5.000000 0.100000 3.500001
v 5.000000 0.200000 5.000000
v 5.000000 0.100000 5.000000
v 5.000000 0.200000 3.500001
vn 0.000000 1.000000 0.000000
vn 0.000000 0.000000 -1.000000
vn -1.000000 0.000000 0.000000
vn 0.000000 0.000000 1.000000
vn 1.000000 0.000000 0.000000
vn -0.130500 0.000000 -0.991400
vn -0.065400 0.000000 -0.997800
vn -0.258800 0.000000 -0.965900
vn -0.382700 0.000000 -0.923900
vn -0.500000 0.000000 -0.866000
vn -0.608800 0.000000 -0.793300
vn -0.707100 0.000000 -0.707100
vn -0.793300 0.000000 -0.608800
vn -0.866000 0.000000 -0.500000
vn -0.923900 0.000000 -0.382700
vn -0.965900 0.000000 -0.258800
vn -0.991400 0.000000 -0.130500
vn -0.997800 0.000000 -0.065400
usemtl Color_M03
s off
f 135//22 136//22 137//22
f 136//22 135//22 138//22
f 138//22 135//22 139//22
f 139//22 135//22 140//22
f 140//22 135//22 141//22
f 141//22 135//22 142//22
f 142//22 135//22 143//22
f 143//22 135//22 144//22
f 144//22 135//22 145//22
f 145//22 135//22 146//22
f 146//22 135//22 147//22
f 147//22 135//22 148//22
f 148//22 135//22 149//22
f 149//22 135//22 150//22
f 151//23 152//23 153//23
f 152//23 151//23 154//23
f 181//24 182//24 183//24
f 182//24 181//24 184//24
f 185//25 186//25 187//25
f 186//25 185//25 188//25
f 189//26 190//26 191//26
f 190//26 189//26 192//26
s 1
f 155//27 156//28 157//27
f 156//28 155//27 158//28
f 159//29 157//27 160//29
f 157//27 159//29 155//27
f 161//30 160//29 162//30
f 160//29 161//30 159//29
f 163//31 162//30 164//31
f 162//30 163//31 161//30
f 165//32 164//31 166//32
f 164//31 165//32 163//31
f 167//33 166//32 168//33
f 166//32 167//33 165//32
f 167//33 169//34 170//34
f 169//34 167//33 168//33
f 170//34 171//35 172//35
f 171//35 170//34 169//34
f 172//35 173//36 174//36
f 173//36 172//35 171//35
f 174//36 175//37 176//37
f 175//37 174//36 173//36
f 176//37 177//38 178//38
f 177//38 176//37 175//37
f 178//38 179//39 180//39
f 179//39 178//38 177//38
o SketchUp.006_ID50
v 5.000000 0.100000 5.000000
v 3.500001 0.100000 4.000000
v 3.500001 0.100000 5.000000
v 3.504278 0.100000 3.934736
v 3.517036 0.100000 3.870592
v 3.538060 0.100000 3.808659
v 3.566988 0.100000 3.750000
v 3.603323 0.100000 3.695619
v 3.646447 0.100000 3.646447
v 3.695619 0.100000 3.603323
v 3.750000 0.100000 3.566988
v 3.808659 0.100000 3.538060
v 3.870592 0.100000 3.517036
v 3.934736 0.100000 3.504278
v 4.000000 0.100000 3.500001
v 5.000000 0.100000 3.500001
vn 0.000000 1.000000 0.000000
usemtl material
s off
f 193//40 194//40 195//40
f 194//40 193//40 196//40
f 196//40 193//40 197//40
f 197//40 193//40 198//40
f 198//40 193//40 199//40
f 199//40 193//40 200//40
f 200//40 193//40 201//40
f 201//40 193//40 202//40
f 202//40 193//40 203//40
f 203//40 193//40 204//40
f 204//40 193//40 205//40
f 205//40 193//40 206//40
f 206//40 193//40 207//40
f 207//40 193//40 208//40
o SketchUp.005_ID44
v 3.504278 0.200000 -3.934736
v 3.500001 0.200000 -5.000000
v 3.500001 0.200000 -4.000000
v 5.000000 0.200000 -5.000000
v 3.517036 0.200000 -3.870592
v 3.538060 0.200000 -3.808659
v 3.566988 0.200000 -3.750000
v 3.603323 0.200000 -3.695619
v 3.646447 0.200000 -3.646447
v 3.695619 0.200000 -3.603323
v 3.750000 0.200000 -3.566988
v 3.808659 0.200000 -3.538060
v 3.870592 0.200000 -3.517036
v 3.934736 0.200000 -3.504278
v 4.000000 0.200000 -3.500001
v 5.000000 0.200000 -3.500001
v 4.000000 0.200000 -3.500001
v 3.934736 0.100000 -3.504278
v 4.000000 0.100000 -3.500001
v 3.934736 0.200000 -3.504278
v 5.000000 0.200000 -3.500001
v 4.000000 0.100000 -3.500001
v 5.000000 0.100000 -3.500001
v 4.000000 0.200000 -3.500001
v 5.000000 0.100000 -5.000000
v 5.000000 0.200000 -3.500001
v 5.000000 0.100000 -3.500001
v 5.000000 0.200000 -5.000000
v 3.500001 0.200000 -5.000000
v 5.000000 0.100000 -5.000000
v 3.500001 0.100000 -5.000000
v 5.000000 0.200000 -5.000000
v 3.500001 0.200000 -5.000000
v 3.500001 0.100000 -4.000000
v 3.500001 0.200000 -4.000000
v 3.500001 0.100000 -5.000000
v 3.500001 0.200000 -4.000000
v 3.504278 0.100000 -3.934736
v 3.504278 0.200000 -3.934736
v 3.500001 0.100000 -4.000000
v 3.517036 0.100000 -3.870592
v 3.517036 0.200000 -3.870592
v 3.538060 0.100000 -3.808659
v 3.538060 0.200000 -3.808659
v 3.566988 0.100000 -3.750000
v 3.566988 0.200000 -3.750000
v 3.603323 0.100000 -3.695619
v 3.603323 0.200000 -3.695619
v 3.646447 0.100000 -3.646447
v 3.646447 0.200000 -3.646447
v 3.695619 0.200000 -3.603323
v 3.695619 0.100000 -3.603323
v 3.750000 0.200000 -3.566988
v 3.750000 0.100000 -3.566988
v 3.808659 0.200000 -3.538060
v 3.808659 0.100000 -3.538060
v 3.870592 0.200000 -3.517036
v 3.870592 0.100000 -3.517036
vn 0.000000 1.000000 0.000000
vn 0.000000 0.000000 1.000000
vn 1.000000 0.000000 0.000000
vn 0.000000 0.000000 -1.000000
vn -1.000000 0.000000 0.000000
vn -0.065400 0.000000 0.997800
vn -0.130500 0.000000 0.991400
vn -0.997800 0.000000 0.065400
vn -0.991400 0.000000 0.130500
vn -0.965900 0.000000 0.258800
vn -0.923900 0.000000 0.382700
vn -0.866000 0.000000 0.500000
vn -0.793300 0.000000 0.608800
vn -0.707100 0.000000 0.707100
vn -0.608800 0.000000 0.793300
vn -0.500000 0.000000 0.866000
vn -0.382700 0.000000 0.923900
vn -0.258800 0.000000 0.965900
usemtl Color_M03
s off
f 209//41 210//41 211//41
f 210//41 209//41 212//41
f 212//41 209//41 213//41
f 212//41 213//41 214//41
f 212//41 214//41 215//41
f 212//41 215//41 216//41
f 212//41 216//41 217//41
f 212//41 217//41 218//41
f 212//41 218//41 219//41
f 212//41 219//41 220//41
f 212//41 220//41 221//41
f 212//41 221//41 222//41
f 212//41 222//41 223//41
f 212//41 223//41 224//41
f 229//42 230//42 231//42
f 230//42 229//42 232//42
f 233//43 234//43 235//43
f 234//43 233//43 236//43
f 237//44 238//44 239//44
f 238//44 237//44 240//44
f 241//45 242//45 243//45
f 242//45 241//45 244//45
s 1
f 225//46 226//47 227//46
f 226//47 225//46 228//47
f 245//48 246//49 247//49
f 246//49 245//48 248//48
f 247//49 249//50 250//50
f 249//50 247//49 246//49
f 250//50 251//51 252//51
f 251//51 250//50 249//50
f 252//51 253//52 254//52
f 253//52 252//51 251//51
f 254//52 255//53 256//53
f 255//53 254//52 253//52
f 256//53 257//54 258//54
f 257//54 256//53 255//53
f 259//55 257//54 260//55
f 257//54 259//55 258//54
f 261//56 260//55 262//56
f 260//55 261//56 259//55
f 263//57 262//56 264//57
f 262//56 263//57 261//56
f 265//58 264//57 266//58
f 264//57 265//58 263//57
f 228//47 266//58 226//47
f 266//58 228//47 265//58
o SketchUp.004_ID36
v -3.500001 0.200000 5.000000
v -5.000000 0.200000 3.500001
v -5.000000 0.200000 5.000000
v -4.000000 0.200000 3.500001
v -3.934736 0.200000 3.504278
v -3.870592 0.200000 3.517036
v -3.808659 0.200000 3.538060
v -3.750000 0.200000 3.566988
v -3.695619 0.200000 3.603323
v -3.646447 0.200000 3.646447
v -3.603323 0.200000 3.695619
v -3.566988 0.200000 3.750000
v -3.538060 0.200000 3.808659
v -3.517036 0.200000 3.870592
v -3.504278 0.200000 3.934736
v -3.500001 0.200000 4.000000
v -4.000000 0.200000 3.500001
v -3.934736 0.100000 3.504278
v -4.000000 0.100000 3.500001
v -3.934736 0.200000 3.504278
v -5.000000 0.200000 3.500001
v -4.000000 0.100000 3.500001
v -5.000000 0.100000 3.500001
v -4.000000 0.200000 3.500001
v -5.000000 0.200000 3.500001
v -5.000000 0.100000 5.000000
v -5.000000 0.200000 5.000000
v -5.000000 0.100000 3.500001
v -3.500001 0.200000 5.000000
v -5.000000 0.100000 5.000000
v -3.500001 0.100000 5.000000
v -5.000000 0.200000 5.000000
v -3.500001 0.100000 4.000000
v -3.500001 0.200000 5.000000
v -3.500001 0.100000 5.000000
v -3.500001 0.200000 4.000000
v -3.504278 0.100000 3.934736
v -3.500001 0.200000 4.000000
v -3.500001 0.100000 4.000000
v -3.504278 0.200000 3.934736
v -3.517036 0.100000 3.870592
v -3.517036 0.200000 3.870592
v -3.538060 0.100000 3.808659
v -3.538060 0.200000 3.808659
v -3.566988 0.100000 3.750000
v -3.566988 0.200000 3.750000
v -3.603323 0.100000 3.695619
v -3.603323 0.200000 3.695619
v -3.646447 0.100000 3.646447
v -3.646447 0.200000 3.646447
v -3.695619 0.200000 3.603323
v -3.695619 0.100000 3.603323
v -3.750000 0.200000 3.566988
v -3.750000 0.100000 3.566988
v -3.808659 0.200000 3.538060
v -3.808659 0.100000 3.538060
v -3.870592 0.200000 3.517036
v -3.870592 0.100000 3.517036
vn 0.000000 1.000000 0.000000
vn 0.000000 0.000000 -1.000000
vn -1.000000 0.000000 0.000000
vn 0.000000 0.000000 1.000000
vn 1.000000 0.000000 0.000000
vn 0.065400 0.000000 -0.997800
vn 0.130500 0.000000 -0.991400
vn 0.991400 0.000000 -0.130500
vn 0.997800 0.000000 -0.065400
vn 0.965900 0.000000 -0.258800
vn 0.923900 0.000000 -0.382700
vn 0.866000 0.000000 -0.500000
vn 0.793300 0.000000 -0.608800
vn 0.707100 0.000000 -0.707100
vn 0.608800 0.000000 -0.793300
vn 0.500000 0.000000 -0.866000
vn 0.382700 0.000000 -0.923900
vn 0.258800 0.000000 -0.965900
usemtl Color_M03
s off
f 267//59 268//59 269//59
f 268//59 267//59 270//59
f 270//59 267//59 271//59
f 271//59 267//59 272//59
f 272//59 267//59 273//59
f 273//59 267//59 274//59
f 274//59 267//59 275//59
f 275//59 267//59 276//59
f 276//59 267//59 277//59
f 277//59 267//59 278//59
f 278//59 267//59 279//59
f 279//59 267//59 280//59
f 280//59 267//59 281//59
f 281//59 267//59 282//59
f 287//60 288//60 289//60
f 288//60 287//60 290//60
f 291//61 292//61 293//61
f 292//61 291//61 294//61
f 295//62 296//62 297//62
f 296//62 295//62 298//62
f 299//63 300//63 301//63
f 300//63 299//63 302//63
s 1
f 283//64 284//65 285//64
f 284//65 283//64 286//65
f 303//66 304//67 305//67
f 304//67 303//66 306//66
f 307//68 306//66 303//66
f 306//66 307//68 308//68
f 309//69 308//68 307//68
f 308//68 309//69 310//69
f 311//70 310//69 309//69
f 310//69 311//70 312//70
f 313//71 312//70 311//70
f 312//70 313//71 314//71
f 315//72 314//71 313//71
f 314//71 315//72 316//72
f 317//73 315//72 318//73
f 315//72 317//73 316//72
f 319//74 318//73 320//74
f 318//73 319//74 317//73
f 321//75 320//74 322//75
f 320//74 321//75 319//74
f 323//76 322//75 324//76
f 322//75 323//76 321//75
f 286//65 324//76 284//65
f 324//76 286//65 323//76
o SketchUp.003_ID30
v -3.500001 0.100000 5.000000
v -5.000000 0.100000 3.500001
v -5.000000 0.100000 5.000000
v -4.000000 0.100000 3.500001
v -3.934736 0.100000 3.504278
v -3.870592 0.100000 3.517036
v -3.808659 0.100000 3.538060
v -3.750000 0.100000 3.566988
v -3.695619 0.100000 3.603323
v -3.646447 0.100000 3.646447
v -3.603323 0.100000 3.695619
v -3.566988 0.100000 3.750000
v -3.538060 0.100000 3.808659
v -3.517036 0.100000 3.870592
v -3.504278 0.100000 3.934736
v -3.500001 0.100000 4.000000
vn 0.000000 1.000000 0.000000
usemtl material
s off
f 325//77 326//77 327//77
f 326//77 325//77 328//77
f 328//77 325//77 329//77
f 329//77 325//77 330//77
f 330//77 325//77 331//77
f 331//77 325//77 332//77
f 332//77 325//77 333//77
f 333//77 325//77 334//77
f 334//77 325//77 335//77
f 335//77 325//77 336//77
f 336//77 325//77 337//77
f 337//77 325//77 338//77
f 338//77 325//77 339//77
f 339//77 325//77 340//77
o SketchUp.002_ID24
v 3.504278 0.100000 -3.934736
v 3.500001 0.100000 -5.000000
v 3.500001 0.100000 -4.000000
v 5.000000 0.100000 -5.000000
v 3.517036 0.100000 -3.870592
v 3.538060 0.100000 -3.808659
v 3.566988 0.100000 -3.750000
v 3.603323 0.100000 -3.695619
v 3.646447 0.100000 -3.646447
v 3.695619 0.100000 -3.603323
v 3.750000 0.100000 -3.566988
v 3.808659 0.100000 -3.538060
v 3.870592 0.100000 -3.517036
v 3.934736 0.100000 -3.504278
v 4.000000 0.100000 -3.500001
v 5.000000 0.100000 -3.500001
vn 0.000000 1.000000 0.000000
usemtl material
s off
f 341//78 342//78 343//78
f 342//78 341//78 344//78
f 344//78 341//78 345//78
f 344//78 345//78 346//78
f 344//78 346//78 347//78
f 344//78 347//78 348//78
f 344//78 348//78 349//78
f 344//78 349//78 350//78
f 344//78 350//78 351//78
f 344//78 351//78 352//78
f 344//78 352//78 353//78
f 344//78 353//78 354//78
f 344//78 354//78 355//78
f 344//78 355//78 356//78
o SketchUp.001_ID11
v 5.000000 0.000000 -5.000000
v 5.000000 0.100000 5.000000
v 5.000000 0.000000 5.000000
v 5.000000 0.100000 3.500001
v 5.000000 0.100000 -3.500001
v 5.000000 0.100000 -5.000000
v 5.000000 0.100000 5.000000
v -5.000000 0.000000 5.000000
v 5.000000 0.000000 5.000000
v -5.000000 0.100000 5.000000
v 3.500001 0.100000 5.000000
v -3.500001 0.100000 5.000000
v -5.000000 0.100000 -5.000000
v 5.000000 0.000000 -5.000000
v -5.000000 0.000000 -5.000000
v 5.000000 0.100000 -5.000000
v -3.500001 0.100000 -5.000000
v 3.500001 0.100000 -5.000000
v -5.000000 0.100000 3.500001
v -5.000000 0.000000 5.000000
v -5.000000 0.100000 5.000000
v -5.000000 0.000000 -5.000000
v -5.000000 0.100000 -3.500001
v -5.000000 0.100000 -5.000000
vt 16.404200 0.000000
vt -16.404200 0.328084
vt -16.404200 0.000000
vt -11.482940 0.328084
vt 11.482940 0.328084
vt 16.404200 0.328084
vt 16.404200 0.328084
vt -16.404200 0.000000
vt 16.404200 0.000000
vt -16.404200 0.328084
vt 11.482940 0.328084
vt -11.482940 0.328084
vt 16.404200 0.328084
vt -16.404200 0.000000
vt 16.404200 0.000000
vt -16.404200 0.328084
vt 11.482940 0.328084
vt -11.482940 0.328084
vt 11.482940 0.328084
vt 16.404200 0.000000
vt 16.404200 0.328084
vt -16.404200 0.000000
vt -11.482940 0.328084
vt -16.404200 0.328084
vn 1.000000 0.000000 0.000000
vn 0.000000 0.000000 1.000000
vn 0.000000 0.000000 -1.000000
vn -1.000000 0.000000 0.000000
usemtl Asphalt_New
s off
f 357/1/79 358/2/79 359/3/79
f 358/2/79 357/1/79 360/4/79
f 360/4/79 357/1/79 361/5/79
f 361/5/79 357/1/79 362/6/79
f 363/7/80 364/8/80 365/9/80
f 364/8/80 363/7/80 366/10/80
f 366/10/80 363/7/80 367/11/80
f 366/10/80 367/11/80 368/12/80
f 369/13/81 370/14/81 371/15/81
f 370/14/81 369/13/81 372/16/81
f 372/16/81 369/13/81 373/17/81
f 372/16/80 373/17/80 374/18/80
f 375/19/82 376/20/82 377/21/82
f 376/20/82 375/19/82 378/22/82
f 378/22/82 375/19/82 379/23/82
f 378/22/82 379/23/82 380/24/82
o SketchUp_ID3
v 5.000000 0.000000 -5.000000
v -5.000000 0.000000 5.000000
v -5.000000 0.000000 -5.000000
v 5.000000 0.000000 5.000000
vn 0.000000 -1.000000 0.000000
usemtl material
s off
f 381//83 382//83 383//83
f 382//83 381//83 384//83
